<svg width="256" height="256" viewBox="0 0 256 256" fill="none" xmlns="http://www.w3.org/2000/svg">
  <defs>
    <linearGradient id="solanaGradient" x1="0%" y1="0%" x2="100%" y2="100%">
      <stop offset="0%" style="stop-color:#9945FF;stop-opacity:1" />
      <stop offset="50%" style="stop-color:#14F195;stop-opacity:1" />
      <stop offset="100%" style="stop-color:#00D4AA;stop-opacity:1" />
    </linearGradient>
  </defs>
  
  <!-- Solana Logo Path -->
  <path d="M64.6 170.3c2.4-2.4 5.7-3.8 9.1-3.8h165.1c5.1 0 7.7 6.2 4.1 9.8l-29.8 29.8c-2.4 2.4-5.7 3.8-9.1 3.8H38.9c-5.1 0-7.7-6.2-4.1-9.8l29.8-29.8z" fill="url(#solanaGradient)"/>
  
  <path d="M64.6 46.3c2.4-2.4 5.7-3.8 9.1-3.8h165.1c5.1 0 7.7 6.2 4.1 9.8l-29.8 29.8c-2.4 2.4-5.7 3.8-9.1 3.8H38.9c-5.1 0-7.7-6.2-4.1-9.8l29.8-29.8z" fill="url(#solanaGradient)"/>
  
  <path d="M191.4 108.3c-2.4-2.4-5.7-3.8-9.1-3.8H17.2c-5.1 0-7.7 6.2-4.1 9.8l29.8 29.8c2.4 2.4 5.7 3.8 9.1 3.8h165.1c5.1 0 7.7-6.2 4.1-9.8l-29.8-29.8z" fill="url(#solanaGradient)"/>
</svg>